<svg width="27.000000" height="29.016876" viewBox="0 0 27 29.0169" fill="none"
	xmlns="http://www.w3.org/2000/svg"
	xmlns:xlink="http://www.w3.org/1999/xlink">
	<defs/>
	<path id="Vector" d="M26.58 26.1L20.46 19.52C21.93 17.41 22.73 14.85 22.73 12.21C22.73 5.47 17.63 0 11.36 0C5.09 0 0 5.47 0 12.21C0 18.95 5.09 24.42 11.36 24.42C13.81 24.43 16.2 23.57 18.16 21.99L24.28 28.57C24.59 28.86 25 29.02 25.41 29.01C25.83 29 26.22 28.82 26.52 28.5C26.81 28.18 26.98 27.76 26.99 27.31C27.01 26.87 26.86 26.43 26.58 26.1ZM3.24 12.21C3.24 10.48 3.72 8.8 4.61 7.36C5.5 5.93 6.77 4.81 8.25 4.15C9.74 3.49 11.37 3.32 12.94 3.65C14.52 3.99 15.97 4.82 17.1 6.04C18.24 7.26 19.01 8.82 19.32 10.51C19.64 12.2 19.48 13.95 18.86 15.55C18.25 17.14 17.21 18.51 15.87 19.46C14.54 20.42 12.97 20.93 11.36 20.93C9.21 20.93 7.15 20.01 5.62 18.38C4.1 16.74 3.25 14.52 3.24 12.21Z" fill="#000000" fill-opacity="1.000000" fill-rule="nonzero"/>
</svg>
